<svg width="423" height="434" viewBox="0 0 423 434" fill="none" xmlns="http://www.w3.org/2000/svg">
<mask id="path-1-inside-1_515_671" fill="white">
<path fill-rule="evenodd" clip-rule="evenodd" d="M0 25C0 13.402 9.40202 4 21 4H261C272.598 4 282 13.402 282 25V124.665C288.804 126.516 294.09 132.054 295.578 139H403C414.046 139 423 147.954 423 159V401C423 412.046 414.046 421 403 421H161C149.954 421 141 412.046 141 401V300.335C134.196 298.484 128.91 292.946 127.422 286H21C9.40202 286 0 276.598 0 265V25Z"/>
</mask>
<path d="M282 124.665H274V130.779L279.9 132.384L282 124.665ZM295.578 139L287.756 140.676L289.111 147H295.578V139ZM141 300.335H149V294.221L143.1 292.616L141 300.335ZM127.422 286L135.244 284.324L133.889 278H127.422V286ZM21 -4C4.98374 -4 -8 8.98374 -8 25H8C8 17.8203 13.8203 12 21 12V-4ZM261 -4H21V12H261V-4ZM290 25C290 8.98375 277.016 -4 261 -4V12C268.18 12 274 17.8203 274 25H290ZM290 124.665V25H274V124.665H290ZM279.9 132.384C283.831 133.454 286.898 136.671 287.756 140.676L303.401 137.324C301.282 127.436 293.777 119.578 284.1 116.945L279.9 132.384ZM403 131H295.578V147H403V131ZM431 159C431 143.536 418.464 131 403 131V147C409.627 147 415 152.373 415 159H431ZM431 401V159H415V401H431ZM403 429C418.464 429 431 416.464 431 401H415C415 407.627 409.627 413 403 413V429ZM161 429H403V413H161V429ZM133 401C133 416.464 145.536 429 161 429V413C154.373 413 149 407.627 149 401H133ZM133 300.335V401H149V300.335H133ZM143.1 292.616C139.169 291.546 136.102 288.329 135.244 284.324L119.599 287.676C121.718 297.563 129.223 305.422 138.9 308.055L143.1 292.616ZM21 294H127.422V278H21V294ZM-8 265C-8 281.016 4.98374 294 21 294V278C13.8203 278 8 272.18 8 265H-8ZM-8 25V265H8V25H-8Z" fill="url(#paint0_linear_515_671)" mask="url(#path-1-inside-1_515_671)"/>
<path d="M69.1013 42.7273L99.863 139.425H101.044L131.868 42.7273H161.697L117.823 170H83.146L39.2096 42.7273H69.1013Z" fill="url(#paint1_linear_515_671)"/>
<path d="M204.519 276H159.402V148.727H204.892C217.694 148.727 228.714 151.275 237.953 156.371C247.192 161.426 254.297 168.696 259.269 178.184C264.282 187.671 266.788 199.023 266.788 212.239C266.788 225.497 264.282 236.89 259.269 246.419C254.297 255.948 247.151 263.26 237.829 268.356C228.549 273.452 217.445 276 204.519 276ZM186.311 252.944H203.401C211.355 252.944 218.046 251.536 223.474 248.718C228.942 245.86 233.044 241.447 235.778 235.482C238.554 229.474 239.942 221.727 239.942 212.239C239.942 202.835 238.554 195.15 235.778 189.184C233.044 183.218 228.963 178.826 223.536 176.009C218.108 173.192 211.417 171.783 203.463 171.783H186.311V252.944Z" fill="url(#paint2_linear_515_671)"/>
<path d="M377.562 309.285H350.342C349.845 305.764 348.83 302.636 347.297 299.901C345.764 297.125 343.796 294.764 341.393 292.817C338.99 290.87 336.215 289.378 333.066 288.342C329.959 287.307 326.582 286.789 322.936 286.789C316.349 286.789 310.611 288.425 305.722 291.698C300.833 294.93 297.043 299.653 294.35 305.867C291.657 312.04 290.31 319.539 290.31 328.364C290.31 337.437 291.657 345.06 294.35 351.233C297.084 357.406 300.896 362.067 305.784 365.216C310.673 368.364 316.328 369.939 322.75 369.939C326.354 369.939 329.689 369.462 332.755 368.509C335.862 367.556 338.618 366.168 341.021 364.346C343.423 362.481 345.412 360.223 346.986 357.572C348.602 354.92 349.721 351.896 350.342 348.499L377.562 348.623C376.857 354.464 375.097 360.099 372.279 365.526C369.504 370.912 365.754 375.739 361.031 380.006C356.35 384.232 350.757 387.588 344.252 390.074C337.789 392.518 330.477 393.74 322.315 393.74C310.963 393.74 300.813 391.171 291.864 386.034C282.956 380.897 275.913 373.46 270.735 363.724C265.597 353.988 263.029 342.201 263.029 328.364C263.029 314.485 265.639 302.677 270.859 292.941C276.079 283.205 283.164 275.789 292.112 270.693C301.061 265.556 311.129 262.987 322.315 262.987C329.689 262.987 336.525 264.023 342.823 266.094C349.161 268.166 354.775 271.19 359.664 275.168C364.553 279.103 368.53 283.93 371.596 289.647C374.703 295.365 376.692 301.911 377.562 309.285Z" fill="url(#paint3_linear_515_671)"/>
<defs>
<linearGradient id="paint0_linear_515_671" x1="8.5" y1="13" x2="415.5" y2="413.5" gradientUnits="userSpaceOnUse">
<stop stop-color="#50ABF8"/>
<stop offset="0.682292" stop-color="#6CE6FC"/>
<stop offset="1" stop-color="white"/>
</linearGradient>
<linearGradient id="paint1_linear_515_671" x1="38.359" y1="22.47" x2="188.893" y2="142.953" gradientUnits="userSpaceOnUse">
<stop stop-color="white"/>
<stop offset="0.520833" stop-color="#6CE6FC"/>
<stop offset="1" stop-color="#50ABF8"/>
</linearGradient>
<linearGradient id="paint2_linear_515_671" x1="151.282" y1="128.47" x2="301.016" y2="245.568" gradientUnits="userSpaceOnUse">
<stop stop-color="white"/>
<stop offset="0.520833" stop-color="#6CE6FC"/>
<stop offset="1" stop-color="#50ABF8"/>
</linearGradient>
<linearGradient id="paint3_linear_515_671" x1="257.385" y1="244.47" x2="408.165" y2="366.071" gradientUnits="userSpaceOnUse">
<stop stop-color="white"/>
<stop offset="0.520833" stop-color="#6CE6FC"/>
<stop offset="1" stop-color="#50ABF8"/>
</linearGradient>
</defs>
</svg>
